<svg width="32" height="32" viewBox="0 0 32 32" fill="none" xmlns="http://www.w3.org/2000/svg">
<rect width="32" height="32" rx="8" fill="#2461ED"/>
<path fill-rule="evenodd" clip-rule="evenodd" d="M18.3069 15.5745C15.1771 13.8832 11.369 11.6899 8.50287 9.90225C7.65723 9.29302 8.08641 8 9.10846 8H23.2899C24.081 8 24.6102 8.88202 24.2137 9.54944C23.2608 11.1953 21.8696 13.2848 20.7075 14.9416C20.0837 15.8309 19.0671 15.9836 18.3069 15.5745ZM13.7423 16.1234C16.7684 17.7365 21.0094 20.1898 24.0228 22.0447C24.9539 22.6194 24.5829 23.9979 23.4954 23.9979C21.7158 23.9979 18.8241 23.9984 15.9473 23.9988C13.1003 23.9993 10.2679 23.9997 8.5429 23.9997C7.67361 23.9997 7.22805 23.0977 7.59722 22.4685C8.84478 20.3425 10.2469 18.1966 11.4126 16.5944C11.9309 15.8797 12.9857 15.7197 13.7423 16.1234Z" fill="white"/>
</svg>
